<svg xmlns="http://www.w3.org/2000/svg" viewBox="0 0 289.19 103.75"><defs><style>.cls-1{fill:#d9d900;}.cls-1,.cls-2{fill-rule:evenodd;}.cls-2,.cls-3{fill:#75754A;}</style></defs><g id="Capa_2" data-name="Capa 2"><g id="movil"><polygon class="cls-1" points="4.6 72.05 0 72.05 0 102.92 19.51 102.92 19.51 98.26 4.6 98.26 4.6 72.05"/><polygon class="cls-1" points="29.97 89.5 44.33 89.5 44.33 85.02 29.97 85.02 29.97 76.38 44.64 76.38 44.64 71.76 25.35 71.76 25.35 102.92 44.69 102.92 44.69 98.26 29.97 98.26 29.97 89.5"/><polygon class="cls-1" points="57.12 81 65.54 92.81 68.17 92.81 76.47 81 76.47 102.41 81 102.41 81 71.96 77.38 71.96 66.88 86.77 56.25 71.96 52.52 71.96 52.52 102.41 57.12 102.41 57.12 81"/><path class="cls-1" d="M88.69,87.4a16.59,16.59,0,0,0,4.72,11.51,15.64,15.64,0,0,0,11.31,4.84,15.92,15.92,0,0,0,11.44-4.84,16.46,16.46,0,0,0,0-23,16.06,16.06,0,0,0-11.44-4.82,15.78,15.78,0,0,0-11.31,4.82A16.59,16.59,0,0,0,88.69,87.4Zm27.56,0a11.64,11.64,0,0,1-11.53,11.69,11.21,11.21,0,0,1-8-3.47,11.72,11.72,0,0,1,0-16.45,11.21,11.21,0,0,1,8-3.47,11.63,11.63,0,0,1,8.18,3.47A11.75,11.75,0,0,1,116.25,87.4Z"/><polygon class="cls-1" points="133.16 102.45 133.16 81.24 148.47 102.45 152.09 102.45 152.09 72.05 147.56 72.05 147.56 93.47 132.12 72.05 128.59 72.01 128.59 102.45 133.16 102.45"/><path class="cls-2" d="M159.31,87.38a16.86,16.86,0,0,0,4.52,11.39,15.09,15.09,0,0,0,11,4.75c7.38,0,13.18-4.93,15-12.21H185.3A10.87,10.87,0,0,1,167,95.52a11.94,11.94,0,0,1,0-16.38,10.78,10.78,0,0,1,7.8-3.43A10.33,10.33,0,0,1,185,82.94h4.53c-1.81-7.23-7.52-11.79-14.76-11.79a15.23,15.23,0,0,0-11,4.74A16.92,16.92,0,0,0,159.31,87.38Z"/><path class="cls-2" d="M196.46,87.4a16.62,16.62,0,0,0,4.71,11.51,15.64,15.64,0,0,0,11.31,4.84,15.9,15.9,0,0,0,11.44-4.84,16.43,16.43,0,0,0,0-23,16,16,0,0,0-11.44-4.82,15.78,15.78,0,0,0-11.31,4.82A16.63,16.63,0,0,0,196.46,87.4Zm27.55,0a11.64,11.64,0,0,1-11.53,11.69,11.19,11.19,0,0,1-8-3.47,11.7,11.7,0,0,1,0-16.45,11.19,11.19,0,0,1,8-3.47A11.64,11.64,0,0,1,224,87.4Z"/><path class="cls-2" d="M236.3,71.76v31.45h11.1c10.22,0,15.43-7.78,15.43-15.61s-5.21-15.84-15.43-15.84Zm4.58,26.93V76.38h6.52c7.19,0,10.9,5.67,10.9,11.22s-3.71,11.09-10.9,11.09Z"/><polygon class="cls-2" points="274.48 89.5 288.83 89.5 288.83 85.02 274.48 85.02 274.48 76.38 289.14 76.38 289.14 71.76 269.86 71.76 269.86 102.92 289.19 102.92 289.19 98.26 274.48 98.26 274.48 89.5"/><path class="cls-3" d="M104.85,5.75V8.1h-2.42c-1.38,0-2.08,2-2.08,5.93V22.1a14,14,0,0,1-1.28,6.61,8.35,8.35,0,0,1-2.37,3v.11A10,10,0,0,1,99.11,35a13.82,13.82,0,0,1,1.24,6.53v8c0,3.89.7,5.84,2.08,5.84h2.42v2.34h-3.14c-2.62,0-3.95-2.34-3.95-7V42.6C97.76,36.19,96.53,33,94,33V30.62c2.49,0,3.72-3.19,3.72-9.57V12.87c0-4.74,1.54-7.12,4.59-7.12Z"/><path class="cls-3" d="M184.65,5.42V7.76h2.42q2.09,0,2.08,5.92v8.07a14,14,0,0,0,1.28,6.62,8.22,8.22,0,0,0,2.37,3v.12a10.27,10.27,0,0,0-2.41,3.17,14,14,0,0,0-1.24,6.53v8c0,3.9-.69,5.84-2.08,5.84h-2.42v2.35h3.15c2.62,0,3.94-2.35,3.94-7V42.27q0-9.63,3.73-9.64V30.28q-3.74,0-3.73-9.56V12.54q0-7.12-4.59-7.12Z"/><path class="cls-1" d="M155.5,34.29c-2.48-.68-5.2-1.13-7.69-1.81-.23.23-.23-.23-.23.45,0,.45,7.47,9.7,11.32,14.21a1.62,1.62,0,0,0,1.36.67c1.81,0,7-7,7-8.34,0-3.38-5-3.38-6.33-3.84C159.13,35.18,157.09,34.74,155.5,34.29Zm13.36-3.16c0-2.48-.9-7.22-3.62-8.8L148,30.9l17.43,3.39C168.18,33.84,168.86,33.38,168.86,31.13ZM159.58,11.5a8.5,8.5,0,0,0-2.49-1.57c-.68,0-1.36.89-1.59,1.35C153,16.92,146.9,28,146.9,28.42c0,.68,2.26-.45,4.75-1.8,4.08-2.26,8.61-4.29,12.45-6.55.23-.22.23-.45.23-1.13C164.33,16.69,162.52,14.21,159.58,11.5ZM145.77,33.94h-.68v9.25a73.74,73.74,0,0,0,.91,9.93c.23.67,2.49,1.58,3.4,1.58,1.81,0,7.24-2,7.24-5a4.68,4.68,0,0,0-1.13-2.7C152.34,42.74,149.85,37.78,145.77,33.94Zm-2.15,18.61-.22-18.49c-.68.23-.91.23-1.14.45-3.17,4.06-6.57,8.12-10,12.18a11.33,11.33,0,0,0-1.81,2.93c0,3.38,9.06,5.65,10.64,5.65A2.57,2.57,0,0,0,143.62,52.55ZM140.79,32c-.91,0-2.26-.23-2.94-.23l-10,.9h-3.62c-1.58,0-2.94.45-2.94,2.71,0,1.13,2.26,11.28,6.56,11.28.46,0,.69,0,.91-.23,3.17-3.61,6.11-7.44,9.28-10.6.91-1.13,3-2.71,3-3.38C141,32,141,32.19,140.79,32Zm.18-1.13a1.38,1.38,0,0,0,.64-.06,1.75,1.75,0,0,1-.48.06ZM127.78,17.31a4.16,4.16,0,0,0-2.28-.45c-2.48,2.71-3.84,7.44-3.84,10.6s3.4,2.93,5.89,2.93c.68,0,4.07-.22,5.88-.45h8.15v-.68C137.06,25.43,132.3,21.14,127.78,17.31Zm15,10.17c-1.35-6.54-1.12-12.41-4.06-18.72-1.37,0-2.95,0-3.86.68-.9.44-6.56,3.38-6.56,5.41,0,.68,10.42,10.15,14.26,13.31C143.05,27.7,142.82,27.48,142.82,27.48ZM152.45,8a50.22,50.22,0,0,0-8.15-.9c-.68,0-1.36,0-1.58.22a1.39,1.39,0,0,0-.91,1.35L145,27.18c1.81-1.36,3.17-5.42,4.53-7.89.22-.68,4.3-7.67,4.3-9.48,0-.68,0-.68-.23-.9A1.51,1.51,0,0,0,152.45,8Zm-7.7-8a31.58,31.58,0,1,0,31.7,31.57A31.64,31.64,0,0,0,144.75,0Zm28.32,38.76c-.48,1.51-1,3-1.63,4.49a12.81,12.81,0,0,1-2.2,3.76A25.36,25.36,0,0,1,166,49.89c-1.18,1-1.79,2.48-2.86,3.58s-2.51,1.57-3.75,2.34A18.57,18.57,0,0,1,155.77,58a62.25,62.25,0,0,1-8.49,2.41c-2.93.53-6.38-.27-9.33-.61a20.2,20.2,0,0,1-8.07-3,27.07,27.07,0,0,1-7.94-6.61,41.79,41.79,0,0,1-4.38-8.48,16.8,16.8,0,0,1-1.13-4.42c-.21-1.63-.84-2.82-1.1-4.44-.78-4.79.43-9,2.36-13.43.59-1.36,1.17-2.74,1.89-4A12.43,12.43,0,0,1,122.31,12c1.11-.95,2.35-1.73,3.46-2.66s2.06-2.11,3.17-3.07a9.53,9.53,0,0,1,3.76-1.88c1.46-.4,3-.62,4.42-1.06s3-1.1,4.49-1.47a19.15,19.15,0,0,1,9.47.53A33.13,33.13,0,0,1,160,5.9c1.37.83,2.66,1.79,3.94,2.75,6.24,4.71,8.52,13,9.68,20.41A21.22,21.22,0,0,1,173.07,38.76Z"/></g></g></svg>
